<?xml version="1.0" encoding="UTF-8" standalone="no"?>
<!-- Created with Inkscape (http://www.inkscape.org/) -->

<svg
   version="1.1"
   id="svg1"
   width="1623.4667"
   height="1886.64"
   viewBox="0 0 1623.4667 1886.64"
   sodipodi:docname="Symbol-vector-file.eps"
   xmlns:inkscape="http://www.inkscape.org/namespaces/inkscape"
   xmlns:sodipodi="http://sodipodi.sourceforge.net/DTD/sodipodi-0.dtd"
   xmlns="http://www.w3.org/2000/svg"
   xmlns:svg="http://www.w3.org/2000/svg">
  <defs
     id="defs1" />
  <sodipodi:namedview
     id="namedview1"
     pagecolor="#ffffff"
     bordercolor="#000000"
     borderopacity="0.25"
     inkscape:showpageshadow="2"
     inkscape:pageopacity="0.0"
     inkscape:pagecheckerboard="0"
     inkscape:deskcolor="#d1d1d1">
    <inkscape:page
       x="0"
       y="0"
       inkscape:label="1"
       id="page1"
       width="1623.4667"
       height="1886.64"
       margin="0"
       bleed="0" />
  </sodipodi:namedview>
  <g
     id="g1"
     inkscape:groupmode="layer"
     inkscape:label="1">
    <g
       id="group-R5">
      <path
         id="path2"
         d="M 10276.9,12266.3 C 7970.18,14729 4104.4,14776.7 1740.41,12409.5 -580.137,10091.1 -580.137,6331.36 1740.41,4014 L 5623.14,131.301 c 174.99,-175.0002 458.18,-175.0002 633.16,0 L 10028.8,3904.8 c 247.1,247.08 469.8,511.16 667.1,787.98 -791.22,-64.7 -1542.11,-97.57 -2277.11,-99.7 C 7710.34,4101 6848.11,3812.5 5920.11,3812.5 c -2426.6,0 -4392.9,1967.37 -4392.9,4393.94 0,394.53 51.99,776.35 149.55,1140.12 143.19,533.47 383.92,1027.74 704.21,1461.44 798.61,1086.1 2086.16,1791.3 3539.14,1791.3 1107.23,0 2120.08,-410.4 2892.18,-1087 228.01,-35 457.08,-71.1 685.12,-108.2 l 121.96,-19.1 c 110.3,-17 223.79,-35 337.25,-60.5 342.58,-76.3 509.08,-215.3 636.38,-533.4 131.5,-326.7 236.5,-669.3 338.3,-1000.16 92.3,-303.32 180.3,-588.61 286.4,-865.43 25.4,-64.69 29.7,-69.99 69.9,-104.99 51,-45.6 151.7,-114.54 250.4,-180.29 101.8,-68.94 205.7,-138.95 300.1,-212.12 -36.1,1387.22 -547.3,2756.39 -1561.2,3838.19"
         style="fill:#ffffff;fill-opacity:1;fill-rule:nonzero;stroke:none"
         transform="matrix(0.13333333,0,0,-0.13333333,0,1886.64)" />
      <path
         id="path3"
         d="m 11861.4,6351.5 -3591.08,1.07 -29.69,-35 c 0,-132.57 -24.4,-263.02 -53.03,-392.42 -65.74,-59.38 -209.99,-26.51 -241.82,56.22 -30.76,79.54 -49.84,343.62 -41.35,430.59 7.43,76.36 42.42,118.79 118.77,132.58 1239.83,-8.5 2476.4,15.89 3717.3,-72.12 62.6,-4.24 143.2,21.21 185.6,-36.06 37.1,-48.79 -18,-83.79 -64.7,-84.86 z M 8799.55,5471.24 c -241.81,-5.31 -481.5,6.36 -723.32,18.03 l -23.33,14.84 108.18,234.38 452.87,20.16 c 216.36,-21.22 465.6,34.99 677.72,9.54 11.65,-1.06 19.08,0 27.57,-9.54 14.84,-14.85 59.38,-127.28 80.58,-161.2 14.87,-22.28 37.13,-53.03 54.12,-75.31 20.14,-25.45 59.37,-42.42 55.15,-78.48 z m 339.38,1460.39 c -5.29,-55.14 -25.46,-116.64 -88.01,-125.14 -101.84,-13.78 -215.3,6.37 -316.05,9.56 -110.31,4.23 -357.43,-37.13 -376.51,115.58 -22.27,190.91 1.06,487.88 10.62,686.2 2.09,59.39 -15.93,213.18 29.67,252.42 14.86,12.73 55.15,20.14 75.3,21.21 83.79,6.37 201.52,-13.78 288.49,-19.09 92.26,-5.3 196.19,6.36 287.41,-18.03 150.6,-41.36 89.08,-259.85 88.04,-375.43 -2.12,-175.01 14.84,-377.57 1.04,-547.28 z m 523.94,858.02 c 278.92,-12.73 555.73,-22.27 834.63,-46.66 81.7,-6.37 190.9,21.2 246.1,-60.46 19.1,-28.64 14.8,-71.05 -12.8,-94.4 -36,-30.74 -199.3,-3.17 -251.3,-2.11 -294.8,8.47 -587.56,24.4 -882.4,45.6 -66.8,5.31 -174.98,-20.14 -202.56,66.82 -47.75,155.9 194.09,94.39 268.33,91.21 z m 1045.73,-879.22 c -60.5,-27.58 -125.2,-2.13 -183.5,-1.06 -318.2,5.3 -668.17,-5.31 -983.15,18.03 -62.58,4.23 -158.03,14.85 -162.27,97.58 -6.37,114.53 172.88,90.14 246.06,88.02 249.24,-7.42 501.66,-24.39 750.86,-38.18 90.2,-4.24 200.5,2.12 287.4,-8.49 21.2,-2.12 52,-15.9 66.8,-30.75 38.2,-40.3 28.7,-100.76 -22.2,-125.15 z m -25.5,331.96 -1215.39,38.18 c -104.99,24.39 -118.79,144.25 -7.43,172.88 365.89,-10.61 728.62,-30.76 1092.42,-53.03 47.7,-3.18 116.6,9.53 156.9,-10.61 79.6,-41.37 67.9,-145.3 -26.5,-147.42 z m -2929.26,-591.8 c -78.48,80.61 -124.1,189.85 -197.28,276.81 -348.93,411.5 -966.16,334.08 -1229.18,-125.15 -58.34,-103.94 -88.04,-202.56 -119.86,-316.05 -31.82,-113.48 -44.54,-337.26 -177.11,-371.2 l -1545.26,-4.25 c -60.46,7.43 -93.31,54.09 -116.67,105 -107.12,239.69 -106.06,606.65 -400.87,722.25 -275.76,108.18 -498.49,-65.75 -615.14,-305.44 -53.03,-108.17 -140,-439.08 -207.89,-497.42 -77.42,-65.74 -244.98,-15.89 -258.78,100.77 -28.63,230.14 21.24,515.43 -1.06,751.94 1.06,22.26 10.62,42.42 10.62,63.64 2.12,117.71 6.37,237.57 8.46,353.17 8.5,468.77 9.56,937.54 28.64,1405.25 21.23,5.3 14.86,-4.23 20.17,-12.72 29.7,-42.43 57.25,-82.73 90.14,-121.97 -2.13,-256.66 3.18,-513.31 1.06,-769.98 -1.06,-47.72 -13.78,-94.39 -10.59,-148.48 7.4,-110.3 18.02,-142.11 133.63,-132.57 222.7,18.03 499.52,97.58 727.54,134.69 325.6,54.1 655.42,91.23 981.03,142.13 148.49,22.27 94.4,-138.94 -4.25,-171.82 -179.23,-32.88 -361.65,-50.91 -541.94,-79.55 -305.46,-49.84 -666.04,-90.13 -961.94,-161.21 -42.42,-10.59 -98.63,-24.39 -133.64,-50.9 -36.07,-27.58 -82.72,-81.67 -9.55,-92.26 493.18,60.45 989.52,99.69 1484.8,147.41 90.16,8.49 198.34,4.25 286.37,19.1 46.66,8.48 92.26,67.87 102.88,110.29 12.71,50.9 19.08,169.7 23.33,228.04 35,496.33 11.65,997.98 46.65,1492.21 -21.2,156.97 27.58,388.18 -2.12,536.65 -3.18,14.84 -14.84,29.69 -22.27,43.48 l -755.14,482.55 9.56,22.3 c 502.71,180.3 1000.11,377.5 1502.85,556.8 145.28,52 305.43,116.7 451.77,160.1 136.82,40.3 163.34,2.1 149.56,-140 -4.25,-12.7 -30.76,-24.3 -43.5,-30.7 -153.78,-79.6 -434.82,-158 -608.74,-216.4 -247.12,-83.8 -499.55,-156.9 -746.65,-241.8 l -1.06,-30.7 c 5.31,-21.3 61.5,-5.3 76.36,-3.2 381.79,71 783.75,219.5 1165.57,310.7 41.35,9.6 144.22,40.3 177.1,25.5 12.74,-7.4 19.09,-18 25.46,-30.8 22.26,-42.4 50.9,-167.6 65.76,-221.6 69.99,-256.7 135.73,-515.5 201.5,-772.13 25.46,-96.52 41.38,-224.85 74.24,-316.07 16.98,-46.65 65.77,-41.35 59.4,22.29 -10.59,118.78 -64.71,279.99 -89.1,403 -73.17,371.21 -179.23,814.51 -215.27,1184.71 -11.68,128.3 12.71,166.5 143.16,162.2 l 3159.44,-505.9 c 62.57,-11.6 103.97,-86.9 126.17,-142.1 40.3,-93.3 61.6,-210 95.5,-307.5 -15.9,-1.1 -32.9,-1.1 -49.9,1 -301.15,30.8 -632.07,130.5 -929,147.4 -129.42,6.4 -129.42,-46.6 -99.72,-155.9 24.39,-89.1 71.08,-182.4 99.72,-271.5 146.34,-445.41 286.35,-892.97 446.49,-1334.19 25.45,-31.8 48.78,-60.43 84.83,-82.71 136.81,-84.84 603.48,-93.33 785.88,-112.41 97.6,-10.62 248.2,-14.87 334.1,-46.68 111.4,-40.3 467.7,-288.48 566.3,-371.2 89.1,-76.37 55.2,-124.09 -55.1,-119.84 -102.9,3.18 -221.7,28.64 -325.6,36.07 -157,12.71 -315,16.96 -473,28.62 -642.74,47.74 -1287.55,96.52 -1929.2,148.48 -151.68,11.67 -300.15,-3.18 -442.25,58.34 -200.46,85.9 -403.02,232.26 -607.7,320.3 -21.23,9.52 -77.45,38.16 -77.45,-3.19 2.13,-16.97 16.99,-26.51 27.58,-37.13 83.79,-80.6 275.76,-171.8 379.69,-251.34 88.04,-66.83 167.58,-121.98 177.11,-239.69 28.64,-323.48 -21.21,-685.14 1.06,-1011.79 -1.06,-22.27 -9.53,-42.43 -10.59,-64.71 -2.12,-38.16 13.77,-188.77 -18.05,-203.62 -60.43,-7.43 -121.95,-14.85 -180.29,-32.88 -29.7,-9.54 -100.75,-49.84 -118.77,-44.54 z M 7111.13,5119.13 c -19.09,-1.06 -93.35,-5.3 -59.4,31.81 18.05,20.16 105,54.09 137.88,75.31 71.05,45.6 127.26,106.06 185.6,166.49 l 120.89,170.77 c 8.5,-224.84 -155.9,-428.48 -384.97,-444.38 z m -277.88,241.8 c -589.66,73.19 -573.76,1439.19 39.25,1535.72 60.46,9.53 135.76,-9.55 190.91,-36.07 504.83,-240.75 368.01,-1574.94 -230.16,-1499.65 z m -1039.37,129.4 c -405.12,-25.45 -811.33,-14.86 -1215.41,-27.57 -24.39,-1.06 -119.83,-32.89 -104.99,21.21 2.12,7.43 78.48,103.93 93.34,129.38 35.01,61.52 65.74,133.63 85.91,201.51 6.35,8.48 91.2,13.79 114.53,14.85 168.64,11.67 339.37,-3.18 506.95,-6.37 131.51,-2.12 280.01,10.62 408.33,1.06 18.02,-2.12 58.31,-6.37 72.11,-11.66 16.96,-7.42 88.04,-169.69 110.31,-205.76 14.83,-22.27 78.48,-83.77 73.17,-102.87 -7.43,-24.39 -116.65,-12.71 -144.25,-13.78 z m -2133.85,82.72 c -237.57,16.97 -263.02,501.66 -246.06,672.4 16.98,162.27 138.94,449.68 322.41,475.13 173.95,25.45 252.43,-212.11 270.45,-346.81 29.7,-214.22 -32.88,-822.99 -346.8,-800.72 z M 10348,9801.55 c 132.6,-346.81 219.5,-723.32 346.8,-1073.3 7.4,-37.12 -15.9,-48.78 -48.8,-48.78 -136.8,-1.07 -323.5,40.3 -464.5,56.2 -107.1,11.67 -226.97,12.74 -333.03,27.57 -25.45,3.19 -66.83,10.62 -83.79,28.64 -98.63,271.51 -201.53,543.02 -294.84,817.7 -53.03,155.91 -147.44,391.32 -179.23,544.12 -3.19,19.1 -5.31,37.1 -4.25,56.2 254.53,-48.8 511.18,-83.8 766.84,-128.4 22.2,-4.2 46.6,1.1 71,-3.1 126.2,-23.4 183.5,-171.86 223.8,-276.85 z m 1341.6,-2219.77 c 13.8,-151.67 -5.3,-313.93 -9.5,-464.55 -2.1,-73.17 14.8,-275.73 -14.9,-328.76 -37.1,-66.83 -93.3,-38.19 -147.4,-37.13 -118.8,2.13 -263,-5.31 -379.7,9.56 -70,9.54 -119.8,51.96 -126.2,124.08 -15.9,163.33 1.1,380.75 9.5,547.25 4.3,77.42 -23.3,238.63 80.6,263.02 44.6,9.54 169.7,4.24 221.7,2.13 77.4,-3.19 180.3,-11.67 257.7,-20.16 63.7,-7.42 101.9,-27.58 108.2,-95.44 z m 431.7,-1043.61 c -44.6,51.96 -128.4,62.58 -153.8,86.97 -18.1,16.96 -7.4,107.12 -9.6,139.99 -7.4,127.28 -15.9,260.91 -18,389.23 -5.3,219.55 30.8,576.95 -52,773.16 -91.2,214.24 -609.8,486.8 -806,659.68 -82.7,74.23 -113.5,123.01 -153.8,226.95 -231.2,601.36 -382.9,1261.05 -623.6,1862.35 -91.2,228 -175,291.7 -414.68,344.7 -145.31,32.9 -296.97,52 -443.31,76.4 -885.59,147.4 -1776.46,263 -2660.98,409.3 -162.27,12.8 -272.55,-20.1 -423.17,-65.7 -554.68,-169.7 -1099.8,-381.8 -1649.19,-567.4 -154.84,-53 -549.37,-205.8 -690.44,-200.5 -149.53,6.4 -361.64,171.9 -497.4,236.5 l -48.78,3.2 -1003.3,-400.9 c -47.72,-77.4 -92.28,-155.9 -134.69,-236.5 261.96,106.1 528.16,207.9 783.75,305.5 124.1,47.7 249.24,96.5 378.63,127.2 201.52,-107.1 403.02,-218.4 599.24,-337.2 261.93,-158 561.02,-339.4 809.2,-516.53 12.74,-9.54 48.78,-31.82 54.09,-40.3 5.31,-7.42 27.58,-84.84 27.58,-91.21 v -895.11 c -18.02,-2.12 -14.87,-1.06 -20.15,11.65 -20.17,46.67 -41.37,164.39 -50.9,218.48 -16.99,95.46 -30.76,205.75 -39.26,303.34 -8.49,79.54 -1.06,336.19 -41.37,386.04 l -1320.41,766.84 -69.99,-1.1 -1229.21,-479.4 c -78.48,-171.79 -146.34,-349.98 -202.56,-533.45 158.03,-97.58 313.93,-197.27 464.52,-301.2 81.67,-55.15 187.72,-108.18 199.4,-217.42 24.39,-214.24 -12.71,-478.32 -18.02,-695.74 -9.56,-361.65 -12.74,-723.31 -18.05,-1086.03 -4.24,-290.59 -31.79,-598.15 -10.59,-889.81 15.9,-205.75 147.41,-393.48 359.52,-428.47 66.83,-11.68 201.5,21.21 230.14,-66.82 59.4,-179.24 82.73,-315 241.81,-445.45 228.04,-186.66 687.28,-191.95 973.63,-222.7 1187.83,-129.4 2396.87,-229.1 3590.01,-242.87 1008.61,-11.68 2002.33,37.11 3005.63,131.51 201.5,19.08 493.2,21.2 679.9,80.6 36,11.65 81.6,19.08 62.5,67.86 l -134.7,50.91 -807.1,111.37 c -14.8,10.61 -4.2,13.78 5.3,23.32 48.8,48.8 129.4,93.35 185.6,151.67 94.5,98.64 147.5,202.57 214.3,319.24 61.5,5.29 123,-1.07 184.5,1.06 318.2,13.78 719.1,-73.19 746.7,357.41 6.3,95.44 12.7,265.14 -50.9,339.38"
         style="fill:#181918;fill-opacity:1;fill-rule:nonzero;stroke:none"
         transform="matrix(0.13333333,0,0,-0.13333333,0,1886.64)" />
      <path
         id="path4"
         d="m 9407.25,8619.02 c -84.85,-74.25 -240.75,-32.88 -339.37,-23.34 -357.43,33.93 -710.58,79.54 -1065.88,120.9 -310.74,37.12 -545.12,-26.51 -660.74,323.48 -78.48,234.38 -142.12,517.55 -204.68,759.36 -47.72,186.66 -138.94,467.68 -159.08,647.98 -15.9,147.5 50.9,270.5 209.99,280 64.68,3.2 178.16,-18 247.12,-27.5 373.32,-46.7 779.5,-100.8 1149.64,-167.6 121.98,-22.3 267.27,-36.1 335.16,-157 162.24,-499.52 360.58,-1014.94 499.52,-1520.84 20.15,-74.24 54.09,-178.18 -11.68,-235.44 z m -2722.47,79.54 c -82.73,-46.67 -310.74,-58.33 -415.74,-76.37 -172.89,-30.75 -346.81,-61.51 -519.69,-93.33 -105,-19.08 -310.74,-112.43 -330.89,62.58 -29.7,244.99 -4.25,537.71 -9.55,789.06 -2.13,130.45 -16.96,267.27 -19.09,397.72 -1.06,95.44 -14.86,345.78 5.31,423.18 11.65,47.7 47.72,61.5 88.01,77.4 218.48,84.9 478.32,126.2 703.17,197.3 130.45,24.4 208.93,-83.8 246.04,-194.1 62.58,-187.7 96.53,-439.09 140,-638.48 54.09,-239.69 143.19,-535.59 169.7,-776.34 7.43,-67.87 7.43,-132.58 -57.27,-168.62 z m 4721.62,-631.05 c -98.6,82.72 -454.9,330.9 -566.3,371.2 -85.9,31.81 -236.5,36.06 -334.1,46.68 -182.4,19.08 -649.07,27.57 -785.88,112.41 -36.05,22.28 -59.38,50.91 -84.83,82.71 -160.14,441.22 -300.15,888.78 -446.49,1334.19 -28.64,89.1 -75.33,182.4 -99.72,271.5 -29.7,109.3 -29.7,162.3 99.72,155.9 296.93,-16.9 627.85,-116.6 929,-147.4 17,-2.1 34,-2.1 49.9,-1 -33.9,97.5 -55.2,214.2 -95.5,307.5 -22.2,55.2 -63.6,130.5 -126.17,142.1 l -3159.44,505.9 c -130.45,4.3 -154.84,-33.9 -143.16,-162.2 36.04,-370.2 142.1,-813.5 215.27,-1184.71 24.39,-123.01 78.51,-284.22 89.1,-403 6.37,-63.64 -42.42,-68.94 -59.4,-22.29 -32.86,91.22 -48.78,219.55 -74.24,316.07 -65.77,256.63 -131.51,515.43 -201.5,772.13 -14.86,54 -43.5,179.2 -65.76,221.6 -6.37,12.8 -12.72,23.4 -25.46,30.8 -32.88,14.8 -135.75,-15.9 -177.1,-25.5 -381.82,-91.2 -783.78,-239.7 -1165.57,-310.7 -14.86,-2.1 -71.05,-18.1 -76.36,3.2 l 1.06,30.7 c 247.1,84.9 499.53,158 746.65,241.8 173.92,58.4 454.96,136.8 608.74,216.4 12.74,6.4 39.25,18 43.5,30.7 13.78,142.1 -12.74,180.3 -149.56,140 -146.34,-43.4 -306.49,-108.1 -451.77,-160.1 -502.74,-179.3 -1000.14,-376.5 -1502.85,-556.8 l -9.56,-22.3 755.14,-482.55 c 7.43,-13.79 19.09,-28.64 22.27,-43.48 29.7,-148.47 -19.08,-379.68 2.12,-536.65 -35,-494.23 -11.65,-995.88 -46.65,-1492.21 -4.25,-58.34 -10.62,-177.14 -23.33,-228.04 -10.62,-42.42 -56.22,-101.81 -102.88,-110.29 -88.03,-14.85 -196.21,-10.61 -286.37,-19.1 -495.28,-47.72 -991.62,-86.96 -1484.8,-147.41 -73.17,10.59 -26.52,64.68 9.55,92.26 35.01,26.51 91.22,40.31 133.64,50.9 295.9,71.08 656.48,111.37 961.94,161.21 180.29,28.64 362.71,46.67 541.94,79.55 98.65,32.88 152.74,194.09 4.25,171.82 -325.61,-50.9 -655.43,-88.03 -981.03,-142.13 -228.02,-37.11 -504.84,-116.66 -727.54,-134.69 -115.61,-9.54 -126.23,22.27 -133.63,132.57 -3.19,54.09 9.53,100.76 10.59,148.48 2.12,256.67 -3.19,513.32 -1.06,769.98 -32.89,39.24 -60.44,79.54 -90.14,121.97 -5.31,8.49 1.06,18.02 -20.17,12.72 -19.08,-467.71 -20.14,-936.48 -28.64,-1405.25 -2.09,-115.6 -6.34,-235.46 -8.46,-353.17 0,-21.22 -9.56,-41.38 -10.62,-63.64 22.3,-236.51 -27.57,-521.8 1.06,-751.94 13.8,-116.66 181.36,-166.51 258.78,-100.77 67.89,58.34 154.86,389.25 207.89,497.42 116.65,239.69 339.38,413.62 615.14,305.44 294.81,-115.6 293.75,-482.56 400.87,-722.25 23.36,-50.91 56.21,-97.57 116.67,-105 l 1545.26,4.25 c 132.57,33.94 145.29,257.72 177.11,371.2 31.82,113.49 61.52,212.11 119.86,316.05 263.02,459.23 880.25,536.65 1229.18,125.15 73.18,-86.96 118.8,-196.2 197.28,-276.81 18.02,-5.3 89.07,35 118.77,44.54 58.34,18.03 119.86,25.45 180.29,32.88 31.82,14.85 15.93,165.46 18.05,203.62 1.06,22.28 9.53,42.44 10.59,64.71 -22.27,326.65 27.58,688.31 -1.06,1011.79 -9.53,117.71 -89.07,172.86 -177.11,239.69 -103.93,79.54 -295.9,170.74 -379.69,251.34 -10.59,10.62 -25.45,20.16 -27.58,37.13 0,41.35 56.22,12.71 77.45,3.19 204.68,-88.04 407.24,-234.4 607.7,-320.3 142.1,-61.52 290.57,-46.67 442.25,-58.34 641.65,-51.96 1286.46,-100.74 1929.2,-148.48 158,-11.66 316,-15.91 473,-28.62 103.9,-7.43 222.7,-32.89 325.6,-36.07 110.3,-4.25 144.2,43.47 55.1,119.84"
         style="fill:#ffffff;fill-opacity:1;fill-rule:nonzero;stroke:none"
         transform="matrix(0.13333333,0,0,-0.13333333,0,1886.64)" />
      <path
         id="path5"
         d="m 9286.68,10210 c 254.32,-48.6 511.23,-84 766.42,-128.7 22.7,-4 46.9,1.1 70.9,-3.2 126,-22.6 184.2,-171.18 224.4,-276.53 132.1,-346.39 219.3,-723.58 346.7,-1073.19 6.9,-37.39 -16.1,-49.18 -49.3,-49.38 -136.6,-0.84 -322.9,40.45 -464.1,56.4 -107.4,12.13 -226.87,13.47 -333.76,28.02 -25.13,3.41 -65.81,9.99 -83.14,28.17 -98.3,272.3 -201.98,543.68 -295.18,817.77 -53.23,156.56 -147.44,391.24 -178.8,544.64 -3.85,18.8 -6.03,36.9 -4.14,56"
         style="fill:#ffffff;fill-opacity:1;fill-rule:nonzero;stroke:none"
         transform="matrix(0.13333333,0,0,-0.13333333,0,1886.64)" />
      <path
         id="path6"
         d="m 7152.48,6362.12 c -30.76,-16.97 -45.6,10.6 -71.05,15.9 -141.07,28.64 -218.49,-137.87 -225.89,-252.4 -7.43,-115.62 15.9,-203.64 88.01,-292.72 31.82,-38.2 94.4,-49.85 5.31,-97.58 -100.75,-55.15 -177.11,24.39 -224.86,109.23 -101.81,184.54 -85.88,473.02 58.34,632.11 78.48,86.96 187.72,127.27 284.23,39.24 19.11,-19.08 100.77,-132.57 85.91,-153.78 z m -89.07,498.46 c -55.15,26.52 -130.45,45.6 -190.91,36.07 -613.01,-96.53 -628.91,-1462.53 -39.25,-1535.72 598.17,-75.29 734.99,1258.9 230.16,1499.65"
         style="fill:#ffffff;fill-opacity:1;fill-rule:nonzero;stroke:none"
         transform="matrix(0.13333333,0,0,-0.13333333,0,1886.64)" />
      <path
         id="path7"
         d="m 8022.75,6544.49 c 1240.39,-7.96 2477.35,15.96 3717.65,-71.68 62.9,-4.44 142.9,20.3 186,-36.6 36.6,-48.35 -18.2,-83.7 -65,-84.49 l -3590.6,0.44 -30.39,-34.53 c 0.47,-132.34 -24.29,-263.17 -53.22,-391.94 -65.81,-59.75 -209.31,-27.5 -241.23,55.35 -30.92,80.24 -50.26,343.58 -41.48,431.29 7.6,75.76 41.99,118.22 118.27,132.16"
         style="fill:#ffffff;fill-opacity:1;fill-rule:nonzero;stroke:none"
         transform="matrix(0.13333333,0,0,-0.13333333,0,1886.64)" />
      <path
         id="path8"
         d="m 4991.05,9723.06 v -895.11 c -18.02,-2.12 -14.87,-1.06 -20.15,11.65 -20.17,46.67 -41.37,164.39 -50.9,218.48 -16.99,95.46 -30.76,205.75 -39.26,303.34 -8.49,79.54 -1.06,336.19 -41.37,386.04 l -1320.41,766.84 -69.99,-1.1 -1229.21,-479.4 c 36.07,81.7 76.36,163.3 118.8,241.8 261.96,106.1 528.16,207.9 783.75,305.5 124.1,47.7 249.24,96.5 378.63,127.2 201.52,-107.1 403.02,-218.4 599.24,-337.2 261.93,-158 561.02,-339.4 809.2,-516.53 12.74,-9.54 48.78,-31.82 54.09,-40.3 5.31,-7.42 27.58,-84.84 27.58,-91.21"
         style="fill:#ffffff;fill-opacity:1;fill-rule:nonzero;stroke:none"
         transform="matrix(0.13333333,0,0,-0.13333333,0,1886.64)" />
      <path
         id="path9"
         d="m 8971.37,7070.58 c -2.12,-19.09 -16.98,-54.1 -30.76,-66.82 -20.14,-16.97 -84.85,-27.56 -113.49,-29.69 -41.35,-3.18 -226.95,5.3 -254.52,23.33 -13.8,9.54 -22.27,27.58 -31.82,41.35 3.18,171.83 -23.33,373.33 -5.31,541.97 14.86,142.11 141.06,125.14 255.61,116.66 84.83,-6.36 170.74,-15.91 180.29,-115.6 11.66,-114.55 13.78,-399.84 0,-511.2 z m 78.48,783.76 c -91.22,24.39 -195.15,12.73 -287.41,18.03 -86.97,5.31 -204.7,25.46 -288.49,19.09 -20.15,-1.07 -60.44,-8.48 -75.3,-21.21 -45.6,-39.24 -27.58,-193.03 -29.67,-252.42 -9.56,-198.32 -32.89,-495.29 -10.62,-686.2 19.08,-152.71 266.2,-111.35 376.51,-115.58 100.75,-3.19 214.21,-23.34 316.05,-9.56 62.55,8.5 82.72,70 88.01,125.14 13.8,169.71 -3.16,372.27 -1.04,547.28 1.04,115.58 62.56,334.07 -88.04,375.43"
         style="fill:#ffffff;fill-opacity:1;fill-rule:nonzero;stroke:none"
         transform="matrix(0.13333333,0,0,-0.13333333,0,1886.64)" />
      <path
         id="path10"
         d="m 3828.67,6350.44 c -61.53,-32.87 -102.9,-150.59 -108.18,-216.34 -9.56,-118.79 24.39,-200.45 101.81,-287.43 -211.06,-153.78 -289.54,190.91 -277.89,342.56 11.68,148.5 138.94,415.77 316.05,269.39 9.56,-7.41 12.74,-20.14 21.23,-28.63 8.47,-9.55 37.11,-16.96 32.89,-35 -18.05,-33.93 -57.28,-28.62 -85.91,-44.55 z m 178.16,23.33 c -18.02,134.7 -96.5,372.26 -270.45,346.81 -183.47,-25.45 -305.43,-312.86 -322.41,-475.13 -16.96,-170.74 8.49,-655.43 246.06,-672.4 313.92,-22.27 376.5,586.5 346.8,800.72"
         style="fill:#ffffff;fill-opacity:1;fill-rule:nonzero;stroke:none"
         transform="matrix(0.13333333,0,0,-0.13333333,0,1886.64)" />
      <path
         id="path11"
         d="m 11541.1,7024.98 c -4.2,-41.38 -9.5,-107.12 -55.1,-121.97 -29.7,-8.48 -219.6,-8.48 -255.6,-3.19 -26.5,4.24 -46.7,20.16 -56.2,45.61 3.2,151.66 -19.1,328.78 -4.3,477.26 3.2,31.81 18.1,105 53.1,114.54 25.4,7.42 216.3,6.36 246,0 32.9,-6.36 57.3,-30.75 67.9,-62.57 -1.1,-144.25 15.9,-307.57 4.2,-449.68 z m 139,92.25 c 4.2,150.62 23.3,312.88 9.5,464.55 -6.3,67.86 -44.5,88.02 -108.2,95.44 -77.4,8.49 -180.3,16.97 -257.7,20.16 -52,2.11 -177.1,7.41 -221.7,-2.13 -103.9,-24.39 -76.3,-185.6 -80.6,-263.02 -8.4,-166.5 -25.4,-383.92 -9.5,-547.25 6.4,-72.12 56.2,-114.54 126.2,-124.08 116.7,-14.87 260.9,-7.43 379.7,-9.56 54.1,-1.06 110.3,-29.7 147.4,37.13 29.7,53.03 12.8,255.59 14.9,328.76"
         style="fill:#ffffff;fill-opacity:1;fill-rule:nonzero;stroke:none"
         transform="matrix(0.13333333,0,0,-0.13333333,0,1886.64)" />
      <path
         id="path12"
         d="m 10730.6,7035.2 c 38.3,-40.25 28.8,-100.8 -22.1,-124.49 -60.1,-27.96 -124.6,-2.76 -183,-1.74 -318.4,5.54 -668.67,-4.42 -983.67,18.26 -62.78,4.52 -157.76,15.34 -162.31,98.01 -6.27,113.87 172.77,90.08 246.09,87.75 249.64,-7.93 501.89,-24.8 750.69,-37.86 90,-4.72 200.4,1.99 288.2,-8.64 21.3,-2.57 51.9,-16.35 66.1,-31.29"
         style="fill:#ffffff;fill-opacity:1;fill-rule:nonzero;stroke:none"
         transform="matrix(0.13333333,0,0,-0.13333333,0,1886.64)" />
      <path
         id="path13"
         d="m 10731.2,7588.29 c -36.8,-30.64 -199.9,-3.75 -252.1,-2.33 -294.9,8.03 -587.25,24.34 -881.79,45.89 -67.31,4.92 -175.41,-20.36 -202.49,66.54 -48.49,155.61 194.23,94.57 267.61,91.3 279.83,-12.46 556.47,-22.54 834.87,-46.37 81.9,-7.01 191.7,20.81 245.9,-60.33 19.3,-28.99 15.7,-71.7 -12,-94.7"
         style="fill:#ffffff;fill-opacity:1;fill-rule:nonzero;stroke:none"
         transform="matrix(0.13333333,0,0,-0.13333333,0,1886.64)" />
      <path
         id="path14"
         d="m 9460.43,7453.53 c 365.24,-11.06 728.47,-30.81 1092.57,-53.34 47.6,-2.94 116.2,10.13 156.4,-10.54 79.5,-40.8 67.7,-144.95 -26.2,-147.65 l -1215.08,38.13 c -105.42,25.3 -118.97,144.85 -7.69,173.4"
         style="fill:#ffffff;fill-opacity:1;fill-rule:nonzero;stroke:none"
         transform="matrix(0.13333333,0,0,-0.13333333,0,1886.64)" />
      <path
         id="path15"
         d="m 7496.15,5563.83 c 8.25,-224.87 -156.13,-428.3 -385.09,-444.93 -18.7,-1.36 -93.79,-4.74 -59.72,31.87 18.95,20.36 105.03,54.37 137.91,75.42 71.81,45.98 127.12,105.77 186.07,166.4 l 120.83,171.24"
         style="fill:#ffffff;fill-opacity:1;fill-rule:nonzero;stroke:none"
         transform="matrix(0.13333333,0,0,-0.13333333,0,1886.64)" />
      <path
         id="path16"
         d="m 9106.07,8809.91 c -470.91,66.82 -948.17,92.27 -1419.06,158.03 -103.93,14.85 -132.57,127.27 -160.15,211.05 -110.3,331.96 -214.23,724.37 -296.96,1065.91 -13.78,54 -73.17,249.2 -5.28,269.4 l 1492.2,-230.2 c 16.99,-14.8 31.82,-63.6 41.38,-88 148.47,-387.12 250.28,-810.29 393.47,-1200.59 38.16,-53.02 43.47,-184.53 -45.6,-185.6 z m 312.86,44.55 c -138.94,505.9 -337.28,1021.32 -499.52,1520.84 -67.89,120.9 -213.18,134.7 -335.16,157 -370.14,66.8 -776.32,120.9 -1149.64,167.6 -68.96,9.5 -182.44,30.7 -247.12,27.5 -159.09,-9.5 -225.89,-132.5 -209.99,-280 20.14,-180.3 111.36,-461.32 159.08,-647.98 62.56,-241.81 126.2,-524.98 204.68,-759.36 115.62,-349.99 350,-286.36 660.74,-323.48 355.3,-41.36 708.45,-86.97 1065.88,-120.9 98.62,-9.54 254.52,-50.91 339.37,23.34 65.77,57.26 31.83,161.2 11.68,235.44"
         style="fill:#181918;fill-opacity:1;fill-rule:nonzero;stroke:none"
         transform="matrix(0.13333333,0,0,-0.13333333,0,1886.64)" />
      <path
         id="path17"
         d="m 6413.26,8876.73 c -103.93,-11.66 -207.86,-30.76 -310.74,-50.9 -132.57,-25.46 -302.27,-75.3 -430.59,-90.16 -49.85,-5.3 -72.12,8.49 -77.42,60.46 -26.52,221.66 14.86,487.86 -19.09,713.76 l -2.12,558.91 c 12.71,34 121.96,59.4 160.15,71.1 154.84,49.8 313.92,88 470.88,132.5 35.01,0 56.22,-40.3 64.71,-70 51.97,-179.2 66.8,-460.25 96.5,-654.32 27.58,-184.55 84.85,-403.02 91.2,-585.44 2.12,-44.55 -3.16,-62.58 -43.48,-85.91 z m 328.79,-9.55 c -26.51,240.75 -115.61,536.65 -169.7,776.34 -43.47,199.39 -77.42,450.78 -140,638.48 -37.11,110.3 -115.59,218.5 -246.04,194.1 -224.85,-71.1 -484.69,-112.4 -703.17,-197.3 -40.29,-15.9 -76.36,-29.7 -88.01,-77.4 -20.17,-77.4 -6.37,-327.74 -5.31,-423.18 2.13,-130.45 16.96,-267.27 19.09,-397.72 5.3,-251.35 -20.15,-544.07 9.55,-789.06 20.15,-175.01 225.89,-81.66 330.89,-62.58 172.88,31.82 346.8,62.58 519.69,93.33 105,18.04 333.01,29.7 415.74,76.37 64.7,36.04 64.7,100.75 57.27,168.62"
         style="fill:#181918;fill-opacity:1;fill-rule:nonzero;stroke:none"
         transform="matrix(0.13333333,0,0,-0.13333333,0,1886.64)" />
      <path
         id="path18"
         d="m 7066.14,6515.76 c 20.04,-18.43 101.62,-132.9 86.61,-154.12 -30.56,-16.49 -46.06,11.03 -71.45,16.27 -140.6,28.99 -218.05,-138.17 -225.58,-252.6 -7.6,-115.6 15.26,-203.2 88.25,-292.72 31.15,-38.22 93.91,-49.16 5.36,-97.61 -101.06,-55.31 -177.35,24.53 -224.81,110.06 -102.2,184.2 -86.22,472.97 57.66,632.01 78.5,86.77 187.97,126.99 283.96,38.71"
         style="fill:#181918;fill-opacity:1;fill-rule:nonzero;stroke:none"
         transform="matrix(0.13333333,0,0,-0.13333333,0,1886.64)" />
      <path
         id="path19"
         d="m 8940.52,7004.22 c -19.79,-17.79 -85.14,-28.5 -113.24,-30.58 -41.73,-3.08 -227.16,6.05 -254.47,23.55 -14.4,9.23 -22.49,28.15 -32.52,41.67 3.52,171.36 -22.34,373.72 -4.95,541.95 14.63,141.65 141.61,124.64 255.33,116.41 85.45,-6.19 171.44,-15.69 181.02,-115.81 10.92,-114.21 13.29,-399.37 -0.22,-510.78 -2.38,-19.66 -17.1,-53.95 -30.95,-66.41"
         style="fill:#181918;fill-opacity:1;fill-rule:nonzero;stroke:none"
         transform="matrix(0.13333333,0,0,-0.13333333,0,1886.64)" />
      <path
         id="path20"
         d="m 3881.42,6429.52 c 8.69,-9.45 37.44,-16.45 33.49,-34.71 -18.79,-33.8 -58.06,-28.4 -86.5,-43.86 -61.57,-33.44 -102.18,-150.73 -107.74,-216.88 -9.99,-118.94 24.68,-200.07 101.93,-287.13 -210.98,-154.54 -289.68,191.04 -278.2,342.79 11.23,148.39 139.45,415.11 315.83,269.37 9.58,-7.91 13.09,-20.76 21.19,-29.58"
         style="fill:#181918;fill-opacity:1;fill-rule:nonzero;stroke:none"
         transform="matrix(0.13333333,0,0,-0.13333333,0,1886.64)" />
      <path
         id="path21"
         d="m 11222.8,7537.26 c 25.4,7.37 216.3,5.86 246.4,-0.19 32.9,-6.63 57.3,-30.99 67.3,-62.54 -0.9,-144.35 16.5,-307.27 4.3,-449.88 -3.6,-41.05 -9.7,-106.96 -55.1,-121.19 -29.7,-9.31 -219.2,-9.19 -255,-3.6 -26.7,4.17 -46.6,20.47 -56.7,45.33 3.2,152.01 -18.8,328.53 -4.1,478.01 3.1,31.79 18.5,104.07 52.9,114.06"
         style="fill:#181918;fill-opacity:1;fill-rule:nonzero;stroke:none"
         transform="matrix(0.13333333,0,0,-0.13333333,0,1886.64)" />
      <path
         id="path22"
         d="m 7224.31,10514.3 1492.09,-229.7 c 17.34,-15.6 32.64,-64.2 41.81,-88.1 148.39,-387.07 250.65,-810.31 393.85,-1201.36 37.46,-52.39 42.65,-184.43 -46.08,-185.67 -470.69,66.89 -948.27,92.42 -1418.82,158.69 -103.95,14.65 -132.75,127.18 -160.4,210.6 -110.25,332.57 -214.63,724.65 -297.14,1066.24 -13.08,54.2 -72.61,248.6 -5.31,269.3"
         style="fill:#ffffff;fill-opacity:1;fill-rule:nonzero;stroke:none"
         transform="matrix(0.13333333,0,0,-0.13333333,0,1886.64)" />
      <path
         id="path23"
         d="m 6203.99,10272.2 c 35.26,-0.2 56.88,-40.2 65.2,-69.2 51.49,-179.6 66.99,-461.12 96.21,-655.04 27.78,-184.34 85.02,-402.57 91.84,-585.45 1.64,-44.05 -4.17,-62.46 -43.69,-85.98 -104.3,-11.66 -208.39,-30.56 -311.23,-50.55 -132.02,-25.66 -301.54,-75.66 -429.89,-89.82 -49.91,-5.51 -72.24,8.18 -78.2,59.44 -25.78,221.97 15.65,488.7 -18.72,713.91 l -2.06,558.89 c 12.54,33.9 122.34,59.7 160.44,71.8 154.7,49.2 313.98,87.4 470.1,132"
         style="fill:#ffffff;fill-opacity:1;fill-rule:nonzero;stroke:none"
         transform="matrix(0.13333333,0,0,-0.13333333,0,1886.64)" />
    </g>
  </g>
</svg>
